<svg version="1.1" id="Layer_1" xmlns="http://www.w3.org/2000/svg" xmlns:xlink="http://www.w3.org/1999/xlink" x="0px" y="0px"
	 width="100%" viewBox="0 0 980 980" enable-background="new 0 0 980 980" xml:space="preserve">
<path fill="#FEFEFE" opacity="1.000000" stroke="none" 
	d="
M576.000000,981.000000 
	C384.000000,981.000000 192.500000,981.000000 1.000000,981.000000 
	C1.000000,654.333313 1.000000,327.666656 1.000000,1.000000 
	C327.666656,1.000000 654.333313,1.000000 981.000000,1.000000 
	C981.000000,327.666656 981.000000,654.333313 981.000000,981.000000 
	C846.166687,981.000000 711.333313,981.000000 576.000000,981.000000 
M577.322876,730.500061 
	C577.341614,655.671753 577.414612,580.843262 577.255615,506.015350 
	C577.245117,501.077576 578.133606,499.575684 583.400940,499.605713 
	C627.396606,499.856659 671.394409,499.722870 715.391113,499.850403 
	C718.991028,499.860840 719.832153,498.772766 719.791443,495.291595 
	C719.619812,480.628174 719.769165,465.961029 719.798157,451.295227 
	C719.804626,448.034088 719.799194,444.772980 719.799194,441.205231 
	C712.088684,441.205231 705.118530,441.200989 698.148376,441.205902 
	C660.316711,441.232635 622.485046,441.265442 584.653381,441.286682 
	C577.382690,441.290771 577.350403,441.271393 577.337891,434.103699 
	C577.284851,403.773193 577.312622,373.442352 577.135620,343.112640 
	C577.113953,339.398560 578.684021,339.268951 581.672668,339.273865 
	C634.003845,339.360199 686.335388,339.280792 738.666382,339.411255 
	C743.071594,339.422272 744.242249,338.177490 744.157288,333.763611 
	C743.858948,318.269836 744.036255,302.766846 744.044250,287.267334 
	C744.047668,280.636353 744.060242,280.633606 737.431763,280.633575 
	C691.766541,280.633484 646.101379,280.638000 600.436157,280.633972 
	C572.937073,280.631531 545.437927,280.625519 517.938843,280.593628 
	C514.958557,280.590179 512.740173,280.353119 512.743713,284.885895 
	C512.874268,452.213745 512.827148,619.541748 512.940369,786.869629 
	C512.943237,791.094727 511.580536,791.770691 507.794403,791.750183 
	C479.796326,791.598511 451.797058,791.664307 423.798187,791.662964 
	C349.134857,791.659363 274.471497,791.654236 199.808167,791.661499 
	C196.764496,791.661804 194.197495,792.202087 194.202484,787.277283 
	C194.350769,640.948792 194.253006,494.620087 194.479172,348.291870 
	C194.495972,337.422058 195.876877,326.404877 197.980286,315.723358 
	C201.028168,300.245789 206.832489,285.685425 214.986313,271.998352 
	C228.276215,249.689774 245.960068,231.933044 268.132996,218.579269 
	C283.007172,209.621201 299.072998,203.156311 316.125641,200.627686 
	C330.180969,198.543503 344.607544,198.812241 358.880035,198.452621 
	C362.284668,198.366837 363.308044,197.458389 363.288483,194.302658 
	C363.197662,179.638199 363.155823,164.972977 363.209198,150.308441 
	C363.219147,147.577042 362.489258,146.533798 359.502655,146.542160 
	C335.411774,146.609589 311.541656,147.809341 288.165985,154.735519 
	C270.710541,159.907516 254.186539,166.976852 238.805862,176.525726 
	C213.468460,192.256088 192.445099,212.565964 176.167969,237.662598 
	C155.174973,270.030365 143.816498,305.345856 143.804932,344.071320 
	C143.755798,508.565735 143.761322,673.060120 143.659790,837.554504 
	C143.657333,841.521362 144.032608,843.398438 148.911026,843.392517 
	C277.906708,843.236023 406.902588,843.261597 535.898438,843.257080 
	C547.898071,843.256653 559.899170,843.155029 571.896423,843.327576 
	C575.848511,843.384460 577.461609,842.380188 577.439636,837.996155 
	C577.262146,802.498169 577.329956,766.998962 577.322876,730.500061 
M839.330261,479.500214 
	C839.330200,420.168854 839.322388,360.837524 839.332581,301.506165 
	C839.341125,251.674774 839.364014,201.843384 839.406189,152.012009 
	C839.408875,148.847946 839.698242,146.514008 834.863892,146.519699 
	C697.535034,146.681091 560.205933,146.665833 422.876862,146.620834 
	C413.903290,146.617905 414.878815,146.643585 414.879517,154.860092 
	C414.889893,277.522827 414.921265,400.185577 414.920319,522.848328 
	C414.920227,535.835388 413.862427,548.659241 408.990448,560.927979 
	C404.563446,572.075989 397.681213,581.419128 387.507446,587.614990 
	C369.333832,598.682617 349.878235,598.007874 330.422760,591.616211 
	C313.842590,586.169128 301.004272,575.140076 289.633667,562.267883 
	C286.915863,559.191223 284.318207,556.008423 281.448944,552.618835 
	C267.812775,566.693542 254.546005,580.453186 241.179352,594.115112 
	C239.078568,596.262207 239.869247,597.756958 241.390747,599.631592 
	C252.850204,613.750732 265.559448,626.488708 281.302734,635.876099 
	C293.742981,643.294006 307.053253,648.810974 321.127594,651.972107 
	C334.425201,654.958862 347.999908,656.649841 361.712097,655.365051 
	C372.580902,654.346680 383.652679,654.084534 394.227966,651.691101 
	C408.256104,648.516235 421.486786,642.818237 433.421539,634.357788 
	C445.266602,625.960754 454.975616,615.753662 462.369385,603.260254 
	C476.880585,578.740112 481.158051,551.847717 481.145264,523.890930 
	C481.096344,417.061218 481.094696,310.231506 481.084808,203.401810 
	C481.084686,201.950485 481.207489,200.499176 481.288788,198.695618 
	C483.229156,198.552216 484.856049,198.327148 486.483002,198.326736 
	C585.646545,198.301437 684.810059,198.315948 783.973572,198.209152 
	C788.015137,198.204803 788.895203,199.487366 788.892273,203.381241 
	C788.782043,350.043274 788.866333,496.705444 788.691589,643.367310 
	C788.670593,660.999756 785.498596,678.298645 779.170044,694.873169 
	C773.020142,710.979736 764.365479,725.513428 753.253296,738.825256 
	C735.220581,760.427551 712.720581,775.100281 686.415527,784.306641 
	C669.306274,790.294739 651.596680,792.426941 633.543884,791.609253 
	C629.968384,791.447388 628.922668,792.515930 628.983948,796.036316 
	C629.178345,807.199341 629.068909,818.367676 629.075195,829.533997 
	C629.077698,833.960571 629.075562,838.387146 629.075562,844.309265 
	C645.546448,842.742798 661.381348,842.288269 676.778076,839.453857 
	C690.105347,837.000488 703.135925,832.399109 715.938110,827.755981 
	C734.987915,820.846802 751.911804,809.821167 767.382019,796.987610 
	C782.624756,784.342712 795.784302,769.587769 806.626831,752.804993 
	C827.267761,720.855530 839.028931,686.172913 839.198181,647.994080 
	C839.445618,592.163696 839.305359,536.331604 839.330261,479.500214 
M68.003494,117.358040 
	C68.003502,118.520477 68.003510,119.682915 68.003510,120.845352 
	C68.003510,122.007126 68.003510,123.168900 68.003510,124.330666 
	C73.737373,103.537354 86.823563,90.617859 108.246536,85.298592 
	C94.388031,85.298592 81.350853,85.298592 68.003494,85.298592 
	C68.003494,95.859024 68.003494,106.127029 68.003494,117.358040 
M890.581604,91.834679 
	C902.538513,99.476219 910.203186,110.202255 913.613647,125.532005 
	C913.613647,111.118149 913.613647,98.289062 913.613647,85.235535 
	C900.496704,85.235535 887.760193,85.235535 875.239441,85.235535 
	C880.027466,87.262848 884.984985,89.361900 890.581604,91.834679 
M101.276901,896.995422 
	C103.209839,896.995422 105.142784,896.995422 107.075722,896.995422 
	C86.688263,891.298767 73.817070,878.323059 68.445709,857.543884 
	C68.445709,870.989807 68.445709,883.881775 68.445709,896.995422 
	C79.368111,896.995422 89.851227,896.995422 101.276901,896.995422 
M878.926697,896.995483 
	C890.490234,896.995483 902.053833,896.995483 913.995483,896.995483 
	C913.995483,889.780701 913.995544,883.323059 913.995544,876.865356 
	C913.995544,870.603760 913.995483,864.342102 913.995483,858.080505 
	C908.165405,878.488708 895.200195,891.206299 875.079590,896.995483 
	C876.073792,896.995483 877.068054,896.995483 878.926697,896.995483 
z"/>
<path fill="#050605" opacity="1.000000" stroke="none" 
	d="
M577.322876,731.000122 
	C577.329956,766.998962 577.262146,802.498169 577.439636,837.996155 
	C577.461609,842.380188 575.848511,843.384460 571.896423,843.327576 
	C559.899170,843.155029 547.898071,843.256653 535.898438,843.257080 
	C406.902588,843.261597 277.906708,843.236023 148.911026,843.392517 
	C144.032608,843.398438 143.657333,841.521362 143.659790,837.554504 
	C143.761322,673.060120 143.755798,508.565735 143.804932,344.071320 
	C143.816498,305.345856 155.174973,270.030365 176.167969,237.662598 
	C192.445099,212.565964 213.468460,192.256088 238.805862,176.525726 
	C254.186539,166.976852 270.710541,159.907516 288.165985,154.735519 
	C311.541656,147.809341 335.411774,146.609589 359.502655,146.542160 
	C362.489258,146.533798 363.219147,147.577042 363.209198,150.308441 
	C363.155823,164.972977 363.197662,179.638199 363.288483,194.302658 
	C363.308044,197.458389 362.284668,198.366837 358.880035,198.452621 
	C344.607544,198.812241 330.180969,198.543503 316.125641,200.627686 
	C299.072998,203.156311 283.007172,209.621201 268.132996,218.579269 
	C245.960068,231.933044 228.276215,249.689774 214.986313,271.998352 
	C206.832489,285.685425 201.028168,300.245789 197.980286,315.723358 
	C195.876877,326.404877 194.495972,337.422058 194.479172,348.291870 
	C194.253006,494.620087 194.350769,640.948792 194.202484,787.277283 
	C194.197495,792.202087 196.764496,791.661804 199.808167,791.661499 
	C274.471497,791.654236 349.134857,791.659363 423.798187,791.662964 
	C451.797058,791.664307 479.796326,791.598511 507.794403,791.750183 
	C511.580536,791.770691 512.943237,791.094727 512.940369,786.869629 
	C512.827148,619.541748 512.874268,452.213745 512.743713,284.885895 
	C512.740173,280.353119 514.958557,280.590179 517.938843,280.593628 
	C545.437927,280.625519 572.937073,280.631531 600.436157,280.633972 
	C646.101379,280.638000 691.766541,280.633484 737.431763,280.633575 
	C744.060242,280.633606 744.047668,280.636353 744.044250,287.267334 
	C744.036255,302.766846 743.858948,318.269836 744.157288,333.763611 
	C744.242249,338.177490 743.071594,339.422272 738.666382,339.411255 
	C686.335388,339.280792 634.003845,339.360199 581.672668,339.273865 
	C578.684021,339.268951 577.113953,339.398560 577.135620,343.112640 
	C577.312622,373.442352 577.284851,403.773193 577.337891,434.103699 
	C577.350403,441.271393 577.382690,441.290771 584.653381,441.286682 
	C622.485046,441.265442 660.316711,441.232635 698.148376,441.205902 
	C705.118530,441.200989 712.088684,441.205231 719.799194,441.205231 
	C719.799194,444.772980 719.804626,448.034088 719.798157,451.295227 
	C719.769165,465.961029 719.619812,480.628174 719.791443,495.291595 
	C719.832153,498.772766 718.991028,499.860840 715.391113,499.850403 
	C671.394409,499.722870 627.396606,499.856659 583.400940,499.605713 
	C578.133606,499.575684 577.245117,501.077576 577.255615,506.015350 
	C577.414612,580.843262 577.341614,655.671753 577.322876,731.000122 
z"/>
<path fill="#050606" opacity="1.000000" stroke="none" 
	d="
M839.330322,480.000244 
	C839.305359,536.331604 839.445618,592.163696 839.198181,647.994080 
	C839.028931,686.172913 827.267761,720.855530 806.626831,752.804993 
	C795.784302,769.587769 782.624756,784.342712 767.382019,796.987610 
	C751.911804,809.821167 734.987915,820.846802 715.938110,827.755981 
	C703.135925,832.399109 690.105347,837.000488 676.778076,839.453857 
	C661.381348,842.288269 645.546448,842.742798 629.075562,844.309265 
	C629.075562,838.387146 629.077698,833.960571 629.075195,829.533997 
	C629.068909,818.367676 629.178345,807.199341 628.983948,796.036316 
	C628.922668,792.515930 629.968384,791.447388 633.543884,791.609253 
	C651.596680,792.426941 669.306274,790.294739 686.415527,784.306641 
	C712.720581,775.100281 735.220581,760.427551 753.253296,738.825256 
	C764.365479,725.513428 773.020142,710.979736 779.170044,694.873169 
	C785.498596,678.298645 788.670593,660.999756 788.691589,643.367310 
	C788.866333,496.705444 788.782043,350.043274 788.892273,203.381241 
	C788.895203,199.487366 788.015137,198.204803 783.973572,198.209152 
	C684.810059,198.315948 585.646545,198.301437 486.483002,198.326736 
	C484.856049,198.327148 483.229156,198.552216 481.288788,198.695618 
	C481.207489,200.499176 481.084686,201.950485 481.084808,203.401810 
	C481.094696,310.231506 481.096344,417.061218 481.145264,523.890930 
	C481.158051,551.847717 476.880585,578.740112 462.369385,603.260254 
	C454.975616,615.753662 445.266602,625.960754 433.421539,634.357788 
	C421.486786,642.818237 408.256104,648.516235 394.227966,651.691101 
	C383.652679,654.084534 372.580902,654.346680 361.712097,655.365051 
	C347.999908,656.649841 334.425201,654.958862 321.127594,651.972107 
	C307.053253,648.810974 293.742981,643.294006 281.302734,635.876099 
	C265.559448,626.488708 252.850204,613.750732 241.390747,599.631592 
	C239.869247,597.756958 239.078568,596.262207 241.179352,594.115112 
	C254.546005,580.453186 267.812775,566.693542 281.448944,552.618835 
	C284.318207,556.008423 286.915863,559.191223 289.633667,562.267883 
	C301.004272,575.140076 313.842590,586.169128 330.422760,591.616211 
	C349.878235,598.007874 369.333832,598.682617 387.507446,587.614990 
	C397.681213,581.419128 404.563446,572.075989 408.990448,560.927979 
	C413.862427,548.659241 414.920227,535.835388 414.920319,522.848328 
	C414.921265,400.185577 414.889893,277.522827 414.879517,154.860092 
	C414.878815,146.643585 413.903290,146.617905 422.876862,146.620834 
	C560.205933,146.665833 697.535034,146.681091 834.863892,146.519699 
	C839.698242,146.514008 839.408875,148.847946 839.406189,152.012009 
	C839.364014,201.843384 839.341125,251.674774 839.332581,301.506165 
	C839.322388,360.837524 839.330200,420.168854 839.330322,480.000244 
z"/>
<path fill="#575757" opacity="1.000000" stroke="none" 
	d="
M68.003494,116.876541 
	C68.003494,106.127029 68.003494,95.859024 68.003494,85.298592 
	C81.350853,85.298592 94.388031,85.298592 108.246536,85.298592 
	C86.823563,90.617859 73.737373,103.537354 68.003510,124.330666 
	C68.003510,123.168900 68.003510,122.007126 68.003510,120.845352 
	C68.003510,119.682915 68.003502,118.520477 68.003494,116.876541 
z"/>
<path fill="#C8C8C8" opacity="1.000000" stroke="none" 
	d="
M890.262085,91.647820 
	C884.984985,89.361900 880.027466,87.262848 875.239441,85.235535 
	C887.760193,85.235535 900.496704,85.235535 913.613647,85.235535 
	C913.613647,98.289062 913.613647,111.118149 913.613647,125.532005 
	C910.203186,110.202255 902.538513,99.476219 890.262085,91.647820 
z"/>
<path fill="#A5A5A5" opacity="1.000000" stroke="none" 
	d="
M100.805618,896.995422 
	C89.851227,896.995422 79.368111,896.995422 68.445709,896.995422 
	C68.445709,883.881775 68.445709,870.989807 68.445709,857.543884 
	C73.817070,878.323059 86.688263,891.298767 107.075722,896.995422 
	C105.142784,896.995422 103.209839,896.995422 100.805618,896.995422 
z"/>
<path fill="#B0B0B0" opacity="1.000000" stroke="none" 
	d="
M878.494507,896.995483 
	C877.068054,896.995483 876.073792,896.995483 875.079590,896.995483 
	C895.200195,891.206299 908.165405,878.488708 913.995483,858.080505 
	C913.995483,864.342102 913.995544,870.603760 913.995544,876.865356 
	C913.995544,883.323059 913.995483,889.780701 913.995483,896.995483 
	C902.053833,896.995483 890.490234,896.995483 878.494507,896.995483 
z"/>
</svg>